<svg width="580" height="400" xmlns="http://www.w3.org/2000/svg">
 <!-- Created with Method Draw - http://github.com/duopixel/Method-Draw/ -->
 <defs>
  <linearGradient y2="0" x2="1" y1="0" x1="0" id="svg_36">
   <stop offset="0.378906" stop-color="#11adad"/>
   <stop offset="1" stop-color="#ee5252"/>
  </linearGradient>
 </defs>
 <g>
  <title>background</title>
  <rect fill="none" id="canvas_background" height="402" width="582" y="-1" x="-1"/>
  <g display="none" overflow="visible" y="0" x="0" height="100%" width="100%" id="canvasGrid">
   <rect fill="url(#gridpattern)" stroke-width="0" y="0" x="0" height="100%" width="100%"/>
  </g>
 </g>
 <g>
  <title>Layer 1</title>
  <rect x="44.578122" y="2.8125" transform="matrix(7.111111534966369,0,0,7.111111534966369,0,0) " id="svg_5" width="50" height="50" fill="none"/>
  <g id="svg_7"/>
  <path stroke="null" fill="url(#svg_36)" id="svg_12" d="m284.428917,11.999994c-106.827469,0 -193.428917,83.691291 -193.428917,186.928929s86.601448,186.928929 193.428917,186.928929s193.428917,-83.691291 193.428917,-186.928929s-86.601448,-186.928929 -193.428917,-186.928929zm84.394925,239.320639c0,16.253376 -13.633808,29.429033 -30.451052,29.429033l-108.429608,0c-16.817244,0 -30.451052,-13.175657 -30.451052,-29.429033l0,-104.78342c0,-16.253376 13.633808,-29.429033 30.451052,-29.429033l108.429608,0c16.817244,0 30.451052,13.175657 30.451052,29.429033l0,104.78342z"/>
  <g transform="matrix(0.2015415389986721,0,0,0.2015415389986721,0,0) " id="svg_13"/>
  <g transform="matrix(0.2015415389986721,0,0,0.2015415389986721,0,0) " id="svg_14"/>
  <g transform="matrix(0.2015415389986721,0,0,0.2015415389986721,0,0) " id="svg_15"/>
  <g transform="matrix(0.2015415389986721,0,0,0.2015415389986721,0,0) " id="svg_16"/>
  <g transform="matrix(0.2015415389986721,0,0,0.2015415389986721,0,0) " id="svg_17"/>
  <g transform="matrix(0.2015415389986721,0,0,0.2015415389986721,0,0) " id="svg_18"/>
  <g transform="matrix(0.2015415389986721,0,0,0.2015415389986721,0,0) " id="svg_19"/>
  <g transform="matrix(0.2015415389986721,0,0,0.2015415389986721,0,0) " id="svg_20"/>
  <g transform="matrix(0.2015415389986721,0,0,0.2015415389986721,0,0) " id="svg_21"/>
  <g transform="matrix(0.2015415389986721,0,0,0.2015415389986721,0,0) " id="svg_22"/>
  <g transform="matrix(0.2015415389986721,0,0,0.2015415389986721,0,0) " id="svg_23"/>
  <g transform="matrix(0.2015415389986721,0,0,0.2015415389986721,0,0) " id="svg_24"/>
  <g transform="matrix(0.2015415389986721,0,0,0.2015415389986721,0,0) " id="svg_25"/>
  <g transform="matrix(0.2015415389986721,0,0,0.2015415389986721,0,0) " id="svg_26"/>
  <g transform="matrix(0.2015415389986721,0,0,0.2015415389986721,0,0) " id="svg_27"/>
  <g id="svg_28"/>
 </g>
</svg>