<svg width="580" height="400" xmlns="http://www.w3.org/2000/svg">
 <!-- Created with Method Draw - http://github.com/duopixel/Method-Draw/ -->

 <g>
  <title>background</title>
  <rect fill="none" id="canvas_background" height="402" width="582" y="-1" x="-1"/>
  <g display="none" overflow="visible" y="0" x="0" height="100%" width="100%" id="canvasGrid">
   <rect fill="url(#gridpattern)" stroke-width="0" y="0" x="0" height="100%" width="100%"/>
  </g>
 </g>
 <g>
  <title>Layer 1</title>
  <rect transform="matrix(7.111111534966369,0,0,7.111111534966369,0,0) " id="svg_5" width="50" height="50" fill="none"/>
  <path fill="#7f007f" id="svg_6" d="m411.777796,35.333335l0,248.917348c0,0 -0.888889,42.638225 -49.664003,42.638225c-53.404448,0 -57.00267,-34.652447 -57.00267,-42.666669c0,-17.137779 6.698667,-35.818669 56.888892,-35.818669c23.104001,0 28.444446,-5.937778 28.444446,-21.070223c0,0 0,-109.959118 0,-119.324452s-0.568889,-12.750223 -10.972445,-10.396445c-17.898668,4.046222 -134.805341,29.390224 -139.470231,30.506668s-6.001778,3.882667 -6.001778,12.103112c0,15.125334 0,163.534232 0,179.555566s-12.387556,42.666669 -56.888892,42.666669s-49.777781,-28.430224 -49.777781,-42.666669c0,-21.141335 16.000001,-34.780447 49.827559,-34.780447c31.509335,0 35.50578,-8.881778 35.50578,-22.108446c0,-47.168003 0,-185.173344 0,-192.000011s2.780445,-11.441778 9.713778,-12.970667c11.598223,-2.545778 176.213344,-36.487113 176.213344,-36.487113s13.184001,-3.008 13.184001,13.902223z"/>
  <g id="svg_7"/>
 </g>
</svg>